<svg xmlns="http://www.w3.org/2000/svg" version="1.1" xmlns:xlink="http://www.w3.org/1999/xlink" xmlns:svgjs="http://svgjs.com/svgjs" width="2000" height="2000" preserveAspectRatio="none" viewBox="0 0 2000 2000"><g mask="url(&quot;#SvgjsMask1130&quot;)" fill="none"><rect width="2000" height="2000" x="0" y="0" fill="rgba(216, 108, 108, 1)"></rect><path d="M2033.3333333333337 2000L0 2000 L0 1256.17Q7.4 1096.91, 166.66666666666669 1104.31Q205.29 976.26, 333.33333333333337 1014.88Q399.08 980.63, 433.33333333333337 1046.38Q556.39 1069.43, 533.3333333333334 1192.49Q644.61 1137.1, 700 1248.38Q790.99 1172.7, 866.6666666666667 1263.69Q872.43 1102.78, 1033.3333333333335 1108.54Q1066.52 975.06, 1200.0000000000002 1008.25Q1259.5 967.75, 1300.0000000000002 1027.24Q1356.11 983.35, 1400.0000000000002 1039.45Q1592.02 1064.81, 1566.666666666667 1256.83Q1556.33 1079.83, 1733.3333333333337 1069.49Q1751.59 987.75, 1833.3333333333337 1006.01Q1974.59 1047.26, 1933.3333333333337 1188.52Q1907.06 1062.25, 2033.3333333333337 1035.98z" fill="rgba(212, 136, 106, 1)"></path><path d="M2066.666666666667 2000L0 2000 L0 1331.66Q33.54 1265.2, 100 1298.73Q135.91 1234.64, 200 1270.56Q274.24 1244.8, 300 1319.04Q382.49 1301.53, 400 1384.02Q503.3 1387.32, 500 1490.61Q598.09 1422.03, 666.6666666666667 1520.12Q711.54 1398.33, 833.3333333333335 1443.2Q944.66 1387.86, 1000.0000000000002 1499.18Q1042.36 1441.54, 1100.0000000000002 1483.89Q1212.05 1429.28, 1266.666666666667 1541.33Q1302.83 1410.82, 1433.3333333333337 1446.98Q1412.64 1326.28, 1533.3333333333337 1305.59Q1555.67 1227.93, 1633.3333333333337 1250.27Q1724.08 1174.35, 1800.0000000000005 1265.09Q1915 1280.09, 1900.0000000000005 1395.09Q1997.67 1326.1, 2066.666666666667 1423.77z" fill="rgba(217, 148, 120, 1)"></path><path d="M2033.3333333333335 2000L0 2000 L0 1556.1Q127.26 1516.69, 166.66666666666669 1643.95Q313.87 1624.49, 333.33333333333337 1771.69Q375.08 1713.44, 433.33333333333337 1755.19Q406.53 1628.39, 533.3333333333334 1601.59Q534.34 1502.6, 633.3333333333334 1503.61Q746.47 1516.75, 733.3333333333334 1629.89Q896.08 1625.97, 900 1788.72Q937.5 1726.22, 1000 1763.71Q958.89 1622.6, 1100 1581.49Q1114.14 1495.63, 1200 1509.77Q1299.86 1509.63, 1300 1609.49Q1437.7 1580.53, 1466.6666666666667 1718.23Q1536.09 1687.65, 1566.6666666666667 1757.07Q1634.68 1725.08, 1666.6666666666667 1793.09Q1678.58 1705, 1766.6666666666667 1716.91Q1733.1 1583.35, 1866.6666666666667 1549.78Q1934.5 1450.95, 2033.3333333333335 1518.78z" fill="rgba(255, 167, 131, 1)"></path><path d="M2066.666666666667 2000L0 2000 L0 1856.64Q146.73 1903.37, 100 2050.09Q14.4 1864.5, 200 1778.9Q371.03 1849.93, 300 2020.96Q215.92 1836.88, 400 1752.81Q578.84 1831.65, 500 2010.49Q625.8 1969.62, 666.6666666666667 2095.42Q677.36 1939.44, 833.3333333333335 1950.13Q817.89 1834.68, 933.3333333333335 1819.24Q988.94 1708.18, 1100.0000000000002 1763.79Q1228.69 1725.81, 1266.666666666667 1854.5Q1292.53 1780.37, 1366.666666666667 1806.23Q1439.24 1712.14, 1533.3333333333337 1784.71Q1620.12 1771.49, 1633.3333333333337 1858.28Q1759.8 1818.08, 1800.0000000000005 1944.54Q1855.54 1833.41, 1966.6666666666672 1888.95Q1952.38 1774.67, 2066.666666666667 1760.38z" fill="white"></path></g><defs><mask id="SvgjsMask1130"><rect width="2000" height="2000" fill="#ffffff"></rect></mask></defs></svg>