<svg xmlns="http://www.w3.org/2000/svg" version="1.1" xmlns:xlink="http://www.w3.org/1999/xlink" xmlns:svgjs="http://svgjs.com/svgjs" width="1440" height="560" preserveAspectRatio="none" viewBox="0 0 1440 560"><g mask="url(&quot;#SvgjsMask1007&quot;)" fill="none"><rect width="1440" height="560" x="0" y="0" fill="rgba(255, 251, 226, 1)"></rect><path d="M1536 560L0 560 L0 357.84Q25.39 311.23, 72 336.62Q122.61 267.23, 192 317.84Q246.47 252.31, 312 306.78Q373.74 296.51, 384 358.25Q406.66 308.91, 456 331.58Q510.66 266.24, 576 320.9Q654.02 278.92, 696 356.95Q726.92 315.88, 768 346.8Q802.81 261.62, 888 296.43Q933.75 270.18, 960 315.92Q1025.74 309.66, 1032 375.4Q1048.76 320.16, 1104 336.93Q1176.11 289.04, 1224 361.15Q1253.49 318.63, 1296 348.12Q1341.73 273.85, 1416 319.58Q1470.91 254.5, 1536 309.41z" fill="rgba(247, 245, 234, 1)"></path><path d="M1512 560L0 560 L0 357.86Q49.4 335.26, 72 384.66Q163.44 356.1, 192 447.53Q232.55 368.07, 312 408.62Q355.87 332.49, 432 376.36Q517.88 342.25, 552 428.13Q577.19 333.32, 672 358.52Q720.11 334.63, 744 382.73Q792.81 359.54, 816 408.35Q833.39 353.74, 888 371.13Q913.69 324.82, 960 350.51Q1044.37 314.88, 1080 399.24Q1134.51 333.75, 1200 388.27Q1274.7 342.98, 1320 417.68Q1394.28 371.96, 1440 446.24Q1470.75 404.99, 1512 435.73z" fill="rgba(255, 251, 226, 1)"></path><path d="M1536 560L0 560 L0 450.04Q31.43 409.47, 72 440.89Q99.28 396.17, 144 423.45Q222.95 382.4, 264 461.35Q308.55 433.9, 336 478.45Q404.11 426.56, 456 494.66Q465.55 432.21, 528 441.76Q596.2 389.96, 648 458.16Q730.6 420.75, 768 503.35Q791.29 454.64, 840 477.93Q859.67 425.61, 912 445.28Q958.05 419.32, 984 465.37Q1051.63 413, 1104 480.62Q1149.43 406.05, 1224 451.48Q1292.44 399.93, 1344 468.37Q1358.25 410.62, 1416 424.87Q1484.08 372.95, 1536 441.03z" fill="rgba(255, 251, 226, 1)"></path><path d="M1488 560L0 560 L0 577.66Q45.55 503.21, 120 548.76Q189.1 497.86, 240 566.96Q266.17 473.13, 360 499.31Q409.3 476.61, 432 525.91Q460.24 482.15, 504 510.39Q598.68 485.07, 624 579.74Q631.73 515.47, 696 523.2Q716.13 471.34, 768 491.47Q809.4 460.87, 840 502.27Q930.44 472.71, 960 563.16Q976.41 507.57, 1032 523.97Q1100.49 472.46, 1152 540.95Q1191.59 460.54, 1272 500.13Q1318.74 474.87, 1344 521.61Q1411.32 516.92, 1416 584.24Q1433.71 529.95, 1488 547.67z" fill="white"></path></g><defs><mask id="SvgjsMask1007"><rect width="1440" height="560" fill="#ffffff"></rect></mask></defs></svg>