<svg xmlns="http://www.w3.org/2000/svg" version="1.1" xmlns:xlink="http://www.w3.org/1999/xlink" xmlns:svgjs="http://svgjs.com/svgjs" width="1440" height="560" preserveAspectRatio="none" viewBox="0 0 1440 560"><g mask="url(&quot;#SvgjsMask1014&quot;)" fill="none"><rect width="1440" height="560" x="0" y="0" fill="rgba(255, 251, 226, 1)"></rect><path d="M1464 560L0 560 L0 324.31Q60.9 265.21, 120 326.11Q205.69 291.8, 240 377.49Q305.95 371.44, 312 437.39Q355.38 408.76, 384 452.14Q386.25 382.39, 456 384.65Q443 299.65, 528 286.66Q611.45 250.12, 648 333.57Q769.86 335.43, 768 457.29Q760.61 329.9, 888 322.51Q931.23 245.74, 1008 288.97Q1055.53 264.5, 1080 312.02Q1212.62 324.63, 1200 457.25Q1179.52 364.76, 1272 344.28Q1292.75 293.03, 1344 313.79Q1426.5 276.3, 1464 358.8z" fill="rgba(255, 251, 226, 1)"></path><path d="M1512 560L0 560 L0 574.47Q-9.45 445.02, 120 435.58Q236.17 479.75, 192 595.92Q160.03 491.95, 264 459.98Q309.62 385.6, 384 431.21Q442.62 417.83, 456 476.45Q557.27 457.72, 576 558.98Q630.31 493.29, 696 547.6Q686.33 465.94, 768 456.27Q814.47 382.74, 888 429.2Q979.98 401.18, 1008 493.16Q1114.4 479.56, 1128 585.96Q1142.34 528.3, 1200 542.64Q1215.91 438.56, 1320 454.47Q1374.9 389.37, 1440 444.27Q1464.07 396.33, 1512 420.4z" fill="rgba(255, 255, 255, 1)"></path></g><defs><mask id="SvgjsMask1014"><rect width="1440" height="560" fill="#ffffff"></rect></mask></defs></svg>