<svg xmlns="http://www.w3.org/2000/svg" version="1.1" xmlns:xlink="http://www.w3.org/1999/xlink" xmlns:svgjs="http://svgjs.com/svgjs" width="1440" height="560" preserveAspectRatio="none" viewBox="0 0 1440 560"><g mask="url(&quot;#SvgjsMask1016&quot;)" fill="none"><rect width="1440" height="560" x="0" y="0" fill="rgba(255, 251, 226, 1)"></rect><path d="M1512 560L0 560 L0 309.55Q80.18 269.74, 120 349.92Q128.86 286.78, 192 295.65Q222.7 254.35, 264 285.04Q361.21 262.25, 384 359.46Q438.2 293.66, 504 347.87Q528.21 300.07, 576 324.28Q594.9 271.18, 648 290.09Q715.56 237.65, 768 305.21Q835.13 300.33, 840 367.46Q892.77 300.23, 960 353Q995.25 268.25, 1080 303.5Q1151.39 254.89, 1200 326.29Q1278.35 284.64, 1320 362.99Q1345.74 268.74, 1440 294.48Q1482.36 264.84, 1512 307.2z" fill="rgba(255, 251, 226, 1)"></path><path d="M1512 560L0 560 L0 418.4Q70.2 368.6, 120 438.8Q133.16 379.96, 192 393.12Q236.6 365.72, 264 410.31Q341.26 367.57, 384 444.83Q408.06 348.89, 504 372.96Q532.54 329.5, 576 358.03Q626.65 336.68, 648 387.34Q732.6 351.94, 768 436.54Q796.48 393.02, 840 421.51Q894.64 356.15, 960 410.79Q970.52 349.31, 1032 359.83Q1105.49 313.31, 1152 386.8Q1226.1 340.89, 1272 414.99Q1299.64 322.63, 1392 350.28Q1474.95 313.23, 1512 396.18z" fill="rgba(255, 251, 226, 1)"></path><path d="M1512 560L0 560 L0 483.01Q56.33 419.34, 120 475.66Q158.27 393.93, 240 432.2Q282.91 403.11, 312 446.02Q353.18 415.2, 384 456.38Q404.77 405.15, 456 425.93Q499.27 397.2, 528 440.47Q599.24 439.71, 600 510.95Q628.41 467.36, 672 495.77Q695.35 447.12, 744 470.46Q781.69 388.14, 864 425.83Q912.57 402.39, 936 450.96Q994.64 437.6, 1008 496.24Q1074.95 443.19, 1128 510.14Q1172.02 434.16, 1248 478.18Q1273.83 432.01, 1320 457.84Q1371.97 389.81, 1440 441.78Q1505.53 435.3, 1512 500.83z" fill="rgba(255, 255, 255, 1)"></path><path d="M1536 560L0 560 L0 534.93Q69.44 484.37, 120 553.81Q187.77 501.58, 240 569.35Q253.97 511.32, 312 525.29Q356.22 449.5, 432 493.72Q478.59 468.31, 504 514.91Q573.47 512.38, 576 581.84Q615.76 501.61, 696 541.37Q738.84 512.21, 768 555.05Q840.05 507.1, 888 579.14Q889.93 509.07, 960 510.99Q986.4 465.39, 1032 491.8Q1125.86 465.66, 1152 559.52Q1200 487.52, 1272 535.52Q1330.32 521.84, 1344 580.16Q1370.23 534.39, 1416 560.62Q1469.12 493.74, 1536 546.85z" fill="rgba(255, 251, 226, 1)"></path></g><defs><mask id="SvgjsMask1016"><rect width="1440" height="560" fill="#ffffff"></rect></mask></defs></svg>