<svg xmlns="http://www.w3.org/2000/svg" version="1.1" xmlns:xlink="http://www.w3.org/1999/xlink" xmlns:svgjs="http://svgjs.com/svgjs" width="1440" height="560" preserveAspectRatio="none" viewBox="0 0 1440 560"><g mask="url(&quot;#SvgjsMask1023&quot;)" fill="none"><rect width="1440" height="560" x="0" y="0" fill="rgba(255, 251, 226, 1)"></rect><path d="M1512 560L0 560 L0 379.75Q-3.96 303.79, 72 299.84Q126.98 234.81, 192 289.79Q253.37 279.16, 264 340.53Q314 270.53, 384 320.53Q436.32 300.85, 456 353.17Q538.94 316.11, 576 399.05Q583.3 334.35, 648 341.65Q698.41 272.06, 768 322.47Q811.04 245.51, 888 288.55Q956.05 236.6, 1008 304.65Q1097.28 273.92, 1128 363.2Q1171.76 334.96, 1200 378.72Q1246.32 305.04, 1320 351.36Q1399.3 310.65, 1440 389.95Q1447.4 325.36, 1512 332.76z" fill="rgba(255, 251, 226, 1)"></path><path d="M1560 560L0 560 L0 444.99Q79.85 404.84, 120 484.69Q150.77 395.46, 240 426.23Q290.16 404.39, 312 454.55Q323.45 394, 384 405.46Q427.73 377.19, 456 420.91Q501.55 394.46, 528 440.01Q534.04 374.05, 600 380.09Q667.78 327.88, 720 395.66Q773.72 377.38, 792 431.11Q845.51 364.63, 912 418.14Q1013.83 399.97, 1032 501.79Q1049.05 446.84, 1104 463.89Q1099.87 387.75, 1176 383.62Q1233.65 369.27, 1248 426.93Q1320 378.93, 1368 450.93Q1422.58 433.51, 1440 488.09Q1469.25 397.34, 1560 426.59z" fill="rgba(255, 255, 255, 1)"></path><path d="M1512 560L0 560 L0 474.77Q80.48 435.25, 120 515.74Q177 500.75, 192 557.75Q217.99 511.74, 264 537.72Q274.42 476.14, 336 486.56Q403.75 434.31, 456 502.05Q531.66 457.72, 576 533.38Q646.71 484.09, 696 554.8Q771.56 510.36, 816 585.92Q830.47 528.38, 888 542.85Q961.42 496.27, 1008 569.69Q1017.88 507.57, 1080 517.44Q1120.2 437.65, 1200 477.85Q1296.72 454.57, 1320 551.29Q1370.79 530.08, 1392 580.87Q1458.95 527.82, 1512 594.77z" fill="rgba(39, 98, 177, 1)"></path></g><defs><mask id="SvgjsMask1023"><rect width="1440" height="560" fill="#ffffff"></rect></mask></defs></svg>