<svg xmlns="http://www.w3.org/2000/svg" version="1.1" xmlns:xlink="http://www.w3.org/1999/xlink" xmlns:svgjs="http://svgjs.com/svgjs" width="1440" height="560" preserveAspectRatio="none" viewBox="0 0 1440 560"><g mask="url(&quot;#SvgjsMask1009&quot;)" fill="none"><rect width="1440" height="560" x="0" y="0" fill="rgba(255, 251, 226, 1)"></rect><path d="M1488 560L0 560 L0 330.98Q50.88 309.87, 72 360.75Q81.59 298.34, 144 307.92Q167.7 259.63, 216 283.33Q257.84 253.17, 288 295.01Q379.69 266.69, 408 358.38Q447.25 277.63, 528 316.89Q616.39 285.28, 648 373.68Q662.06 315.75, 720 329.81Q790.97 280.78, 840 351.76Q878.61 270.37, 960 308.97Q985.43 262.4, 1032 287.83Q1116.35 252.17, 1152 336.52Q1196.1 308.62, 1224 352.71Q1291.96 300.67, 1344 368.63Q1348.72 301.35, 1416 306.07Q1457.45 275.52, 1488 316.97z" fill="rgba(255, 255, 255, 1)"></path><path d="M1512 560L0 560 L0 367.73Q79.95 327.69, 120 407.64Q169.67 385.31, 192 434.97Q193.68 364.65, 264 366.33Q292.11 322.44, 336 350.54Q431.88 326.42, 456 422.29Q495.63 341.92, 576 381.55Q626.87 312.42, 696 363.29Q793.27 340.56, 816 437.84Q840.01 389.86, 888 413.87Q937.5 343.38, 1008 392.88Q1038.47 351.36, 1080 381.83Q1157.64 339.47, 1200 417.11Q1230.84 327.94, 1320 358.78Q1370.7 337.48, 1392 388.18Q1462.73 338.91, 1512 409.64z" fill="rgba(255, 251, 226, 1)"></path><path d="M1464 560L0 560 L0 441.74Q26.93 396.67, 72 423.6Q126.14 405.74, 144 459.88Q196.94 440.81, 216 493.75Q251.65 409.4, 336 445.06Q425.48 414.54, 456 504.03Q497.96 473.99, 528 515.95Q543.68 411.63, 648 427.31Q716.83 376.14, 768 444.97Q824.48 429.45, 840 485.93Q887.5 413.44, 960 460.94Q976.04 404.98, 1032 421.02Q1076.65 393.67, 1104 438.32Q1181.35 395.66, 1224 473.01Q1277.48 406.49, 1344 459.97Q1384.51 380.49, 1464 421z" fill="rgba(255, 251, 226, 1)"></path><path d="M1560 560L0 560 L0 573.98Q-5.32 496.66, 72 491.35Q138.19 437.54, 192 503.73Q233.14 472.87, 264 514.01Q359.17 489.18, 384 584.36Q437.06 517.42, 504 570.49Q556.55 503.04, 624 555.59Q674.18 485.77, 744 535.94Q825.5 497.44, 864 578.94Q888.78 531.73, 936 556.51Q972.17 472.68, 1056 508.86Q1109.95 490.82, 1128 544.77Q1175.17 471.94, 1248 519.11Q1290.22 489.33, 1320 531.54Q1364.22 455.75, 1440 499.97Q1529.68 469.65, 1560 559.34z" fill="white"></path></g><defs><mask id="SvgjsMask1009"><rect width="1440" height="560" fill="#ffffff"></rect></mask></defs></svg>